<mxfile host="Electron" agent="Mozilla/5.0 (Windows NT 10.0; Win64; x64) AppleWebKit/537.36 (KHTML, like Gecko) draw.io/26.2.15 Chrome/134.0.6998.205 Electron/35.2.1 Safari/537.36" version="26.2.15">
  <diagram name="Page-1" id="YamRjd7C2qqK7Gs5wqMQ">
    <mxGraphModel dx="570" dy="772" grid="1" gridSize="10" guides="1" tooltips="1" connect="1" arrows="1" fold="1" page="1" pageScale="1" pageWidth="850" pageHeight="1100" math="0" shadow="0">
      <root>
        <mxCell id="0" />
        <mxCell id="1" parent="0" />
        <mxCell id="sBH0ZGKMRaF1Ydb4D2Og-1" value="User&lt;div&gt;&lt;br&gt;&lt;/div&gt;" style="shape=umlActor;verticalLabelPosition=bottom;verticalAlign=top;html=1;outlineConnect=0;" parent="1" vertex="1">
          <mxGeometry x="20" y="390" width="30" height="60" as="geometry" />
        </mxCell>
        <mxCell id="sBH0ZGKMRaF1Ydb4D2Og-2" value="&quot;Aναζήτηση Διαμερείσματος&quot;" style="shape=umlBoundary;whiteSpace=wrap;html=1;" parent="1" vertex="1">
          <mxGeometry x="210" y="90" width="110" height="90" as="geometry" />
        </mxCell>
        <mxCell id="sBH0ZGKMRaF1Ydb4D2Og-3" value="" style="endArrow=classic;html=1;rounded=0;entryX=-0.022;entryY=0.495;entryDx=0;entryDy=0;entryPerimeter=0;" parent="1" source="sBH0ZGKMRaF1Ydb4D2Og-1" target="sBH0ZGKMRaF1Ydb4D2Og-2" edge="1">
          <mxGeometry width="50" height="50" relative="1" as="geometry">
            <mxPoint x="150" y="240" as="sourcePoint" />
            <mxPoint x="200" y="190" as="targetPoint" />
          </mxGeometry>
        </mxCell>
        <mxCell id="sBH0ZGKMRaF1Ydb4D2Og-4" value="" style="endArrow=classic;html=1;rounded=0;exitX=1.026;exitY=0.45;exitDx=0;exitDy=0;exitPerimeter=0;entryX=0;entryY=0.5;entryDx=0;entryDy=0;entryPerimeter=0;" parent="1" source="sBH0ZGKMRaF1Ydb4D2Og-2" target="sBH0ZGKMRaF1Ydb4D2Og-5" edge="1">
          <mxGeometry width="50" height="50" relative="1" as="geometry">
            <mxPoint x="440" y="160" as="sourcePoint" />
            <mxPoint x="460" y="140" as="targetPoint" />
          </mxGeometry>
        </mxCell>
        <mxCell id="sBH0ZGKMRaF1Ydb4D2Og-5" value="Εμφάνισή Φόρμας Φιλτρ&lt;div&gt;Αναζητησης&lt;/div&gt;" style="ellipse;shape=umlControl;whiteSpace=wrap;html=1;" parent="1" vertex="1">
          <mxGeometry x="490" y="140" width="80" height="90" as="geometry" />
        </mxCell>
        <mxCell id="sBH0ZGKMRaF1Ydb4D2Og-6" value="" style="endArrow=classic;html=1;rounded=0;entryX=0.986;entryY=0.415;entryDx=0;entryDy=0;entryPerimeter=0;" parent="1" source="sBH0ZGKMRaF1Ydb4D2Og-5" target="sBH0ZGKMRaF1Ydb4D2Og-7" edge="1">
          <mxGeometry width="50" height="50" relative="1" as="geometry">
            <mxPoint x="330" y="330" as="sourcePoint" />
            <mxPoint x="380" y="280" as="targetPoint" />
          </mxGeometry>
        </mxCell>
        <mxCell id="sBH0ZGKMRaF1Ydb4D2Og-7" value="Φόρμα Φιλτρ Αναζ" style="shape=umlBoundary;whiteSpace=wrap;html=1;" parent="1" vertex="1">
          <mxGeometry x="230" y="260" width="100" height="80" as="geometry" />
        </mxCell>
        <mxCell id="sBH0ZGKMRaF1Ydb4D2Og-8" value="" style="endArrow=classic;html=1;rounded=0;entryX=-0.034;entryY=0.495;entryDx=0;entryDy=0;entryPerimeter=0;" parent="1" source="sBH0ZGKMRaF1Ydb4D2Og-1" target="sBH0ZGKMRaF1Ydb4D2Og-7" edge="1">
          <mxGeometry width="50" height="50" relative="1" as="geometry">
            <mxPoint x="140" y="320" as="sourcePoint" />
            <mxPoint x="190" y="270" as="targetPoint" />
          </mxGeometry>
        </mxCell>
        <mxCell id="E5eT6vwn9FKi5rd7ZhD9-1" value="Επιλέγει Φίλτρα" style="edgeLabel;html=1;align=center;verticalAlign=middle;resizable=0;points=[];" vertex="1" connectable="0" parent="sBH0ZGKMRaF1Ydb4D2Og-8">
          <mxGeometry x="-0.0872" y="-3" relative="1" as="geometry">
            <mxPoint as="offset" />
          </mxGeometry>
        </mxCell>
        <mxCell id="E5eT6vwn9FKi5rd7ZhD9-2" value="Eμφάνιση Λίστας Διαθέσιμων Διαμερισμάτων" style="shape=umlBoundary;whiteSpace=wrap;html=1;" vertex="1" parent="1">
          <mxGeometry x="232.5" y="460" width="110" height="90" as="geometry" />
        </mxCell>
        <mxCell id="E5eT6vwn9FKi5rd7ZhD9-3" value="Αναζήτηση Διαθέσιμων Διαμερισμάτων" style="ellipse;shape=umlControl;whiteSpace=wrap;html=1;" vertex="1" parent="1">
          <mxGeometry x="500" y="320" width="90" height="110" as="geometry" />
        </mxCell>
        <mxCell id="E5eT6vwn9FKi5rd7ZhD9-4" value="" style="endArrow=classic;html=1;rounded=0;exitX=0.962;exitY=0.708;exitDx=0;exitDy=0;exitPerimeter=0;entryX=-0.033;entryY=0.493;entryDx=0;entryDy=0;entryPerimeter=0;" edge="1" parent="1" source="sBH0ZGKMRaF1Ydb4D2Og-7" target="E5eT6vwn9FKi5rd7ZhD9-3">
          <mxGeometry width="50" height="50" relative="1" as="geometry">
            <mxPoint x="390" y="380" as="sourcePoint" />
            <mxPoint x="440" y="330" as="targetPoint" />
          </mxGeometry>
        </mxCell>
        <mxCell id="E5eT6vwn9FKi5rd7ZhD9-5" value="" style="endArrow=classic;html=1;rounded=0;entryX=0.877;entryY=0.133;entryDx=0;entryDy=0;entryPerimeter=0;exitX=0.102;exitY=0.852;exitDx=0;exitDy=0;exitPerimeter=0;" edge="1" parent="1" source="E5eT6vwn9FKi5rd7ZhD9-3" target="E5eT6vwn9FKi5rd7ZhD9-2">
          <mxGeometry width="50" height="50" relative="1" as="geometry">
            <mxPoint x="300" y="570" as="sourcePoint" />
            <mxPoint x="350" y="520" as="targetPoint" />
          </mxGeometry>
        </mxCell>
        <mxCell id="E5eT6vwn9FKi5rd7ZhD9-6" value="Found" style="edgeLabel;html=1;align=center;verticalAlign=middle;resizable=0;points=[];" vertex="1" connectable="0" parent="E5eT6vwn9FKi5rd7ZhD9-5">
          <mxGeometry x="0.0428" y="-1" relative="1" as="geometry">
            <mxPoint as="offset" />
          </mxGeometry>
        </mxCell>
        <mxCell id="E5eT6vwn9FKi5rd7ZhD9-7" value="" style="endArrow=classic;html=1;rounded=0;exitX=0.01;exitY=0.656;exitDx=0;exitDy=0;exitPerimeter=0;entryX=1.02;entryY=0.34;entryDx=0;entryDy=0;entryPerimeter=0;" edge="1" parent="1" source="E5eT6vwn9FKi5rd7ZhD9-3" target="E5eT6vwn9FKi5rd7ZhD9-8">
          <mxGeometry width="50" height="50" relative="1" as="geometry">
            <mxPoint x="340" y="580" as="sourcePoint" />
            <mxPoint x="390" y="530" as="targetPoint" />
          </mxGeometry>
        </mxCell>
        <mxCell id="E5eT6vwn9FKi5rd7ZhD9-9" value="Not Found" style="edgeLabel;html=1;align=center;verticalAlign=middle;resizable=0;points=[];" vertex="1" connectable="0" parent="E5eT6vwn9FKi5rd7ZhD9-7">
          <mxGeometry x="0.0729" y="-2" relative="1" as="geometry">
            <mxPoint y="1" as="offset" />
          </mxGeometry>
        </mxCell>
        <mxCell id="E5eT6vwn9FKi5rd7ZhD9-8" value="&quot;Νο Appartments Found&quot;&lt;div&gt;Message&lt;/div&gt;" style="shape=umlBoundary;whiteSpace=wrap;html=1;" vertex="1" parent="1">
          <mxGeometry x="225" y="360" width="110" height="90" as="geometry" />
        </mxCell>
        <mxCell id="E5eT6vwn9FKi5rd7ZhD9-10" value="&quot;Προβολή Λεπτομεριών&quot;" style="shape=umlBoundary;whiteSpace=wrap;html=1;" vertex="1" parent="1">
          <mxGeometry x="235" y="640" width="105" height="90" as="geometry" />
        </mxCell>
        <mxCell id="E5eT6vwn9FKi5rd7ZhD9-11" value="" style="endArrow=classic;html=1;rounded=0;exitX=0.5;exitY=0.5;exitDx=0;exitDy=0;exitPerimeter=0;entryX=-0.029;entryY=0.511;entryDx=0;entryDy=0;entryPerimeter=0;" edge="1" parent="1" source="sBH0ZGKMRaF1Ydb4D2Og-1" target="E5eT6vwn9FKi5rd7ZhD9-10">
          <mxGeometry width="50" height="50" relative="1" as="geometry">
            <mxPoint x="110" y="580" as="sourcePoint" />
            <mxPoint x="160" y="530" as="targetPoint" />
            <Array as="points">
              <mxPoint x="110" y="420" />
              <mxPoint x="190" y="686" />
            </Array>
          </mxGeometry>
        </mxCell>
        <mxCell id="E5eT6vwn9FKi5rd7ZhD9-12" value="Εμφάνιση Λεπτομερειών Διαμερίσματος" style="ellipse;shape=umlControl;whiteSpace=wrap;html=1;" vertex="1" parent="1">
          <mxGeometry x="500" y="625" width="90" height="105" as="geometry" />
        </mxCell>
        <mxCell id="E5eT6vwn9FKi5rd7ZhD9-13" value="" style="endArrow=classic;html=1;rounded=0;exitX=0;exitY=0.526;exitDx=0;exitDy=0;exitPerimeter=0;entryX=0.971;entryY=0.461;entryDx=0;entryDy=0;entryPerimeter=0;" edge="1" parent="1" source="E5eT6vwn9FKi5rd7ZhD9-12" target="E5eT6vwn9FKi5rd7ZhD9-10">
          <mxGeometry width="50" height="50" relative="1" as="geometry">
            <mxPoint x="330" y="840" as="sourcePoint" />
            <mxPoint x="380" y="790" as="targetPoint" />
          </mxGeometry>
        </mxCell>
        <mxCell id="E5eT6vwn9FKi5rd7ZhD9-14" value="" style="endArrow=classic;html=1;rounded=0;entryX=0.627;entryY=0.024;entryDx=0;entryDy=0;entryPerimeter=0;exitX=0.622;exitY=0.955;exitDx=0;exitDy=0;exitPerimeter=0;" edge="1" parent="1" source="E5eT6vwn9FKi5rd7ZhD9-12" target="E5eT6vwn9FKi5rd7ZhD9-15">
          <mxGeometry width="50" height="50" relative="1" as="geometry">
            <mxPoint x="560" y="740" as="sourcePoint" />
            <mxPoint x="290" y="760" as="targetPoint" />
            <Array as="points">
              <mxPoint x="560" y="740" />
              <mxPoint x="300" y="740" />
            </Array>
          </mxGeometry>
        </mxCell>
        <mxCell id="E5eT6vwn9FKi5rd7ZhD9-15" value="Σελίδα Λεπτ. Διαμερ." style="shape=umlBoundary;whiteSpace=wrap;html=1;" vertex="1" parent="1">
          <mxGeometry x="240" y="790" width="100" height="80" as="geometry" />
        </mxCell>
        <mxCell id="E5eT6vwn9FKi5rd7ZhD9-17" value="" style="endArrow=classic;html=1;rounded=0;exitX=0.5;exitY=0.5;exitDx=0;exitDy=0;exitPerimeter=0;entryX=-0.033;entryY=0.471;entryDx=0;entryDy=0;entryPerimeter=0;" edge="1" parent="1" source="sBH0ZGKMRaF1Ydb4D2Og-1" target="E5eT6vwn9FKi5rd7ZhD9-15">
          <mxGeometry width="50" height="50" relative="1" as="geometry">
            <mxPoint x="70" y="470" as="sourcePoint" />
            <mxPoint x="170" y="760" as="targetPoint" />
            <Array as="points">
              <mxPoint x="90" y="440" />
              <mxPoint x="140" y="690" />
              <mxPoint x="200" y="820" />
            </Array>
          </mxGeometry>
        </mxCell>
        <mxCell id="E5eT6vwn9FKi5rd7ZhD9-20" value="Like/Skip" style="edgeLabel;html=1;align=center;verticalAlign=middle;resizable=0;points=[];" vertex="1" connectable="0" parent="E5eT6vwn9FKi5rd7ZhD9-17">
          <mxGeometry x="-0.2142" relative="1" as="geometry">
            <mxPoint as="offset" />
          </mxGeometry>
        </mxCell>
        <mxCell id="E5eT6vwn9FKi5rd7ZhD9-21" value="" style="endArrow=classic;html=1;rounded=0;exitX=0.963;exitY=0.333;exitDx=0;exitDy=0;exitPerimeter=0;entryX=0.062;entryY=0.483;entryDx=0;entryDy=0;entryPerimeter=0;" edge="1" parent="1" source="E5eT6vwn9FKi5rd7ZhD9-15" target="E5eT6vwn9FKi5rd7ZhD9-22">
          <mxGeometry width="50" height="50" relative="1" as="geometry">
            <mxPoint x="430" y="850" as="sourcePoint" />
            <mxPoint x="520" y="810" as="targetPoint" />
          </mxGeometry>
        </mxCell>
        <mxCell id="E5eT6vwn9FKi5rd7ZhD9-22" value="Like Or Skip?" style="ellipse;shape=umlControl;whiteSpace=wrap;html=1;" vertex="1" parent="1">
          <mxGeometry x="570" y="770" width="80" height="90" as="geometry" />
        </mxCell>
        <mxCell id="E5eT6vwn9FKi5rd7ZhD9-26" value="" style="endArrow=classic;html=1;rounded=0;exitX=0.505;exitY=0.19;exitDx=0;exitDy=0;exitPerimeter=0;entryX=0.871;entryY=0.867;entryDx=0;entryDy=0;entryPerimeter=0;" edge="1" parent="1" source="E5eT6vwn9FKi5rd7ZhD9-22" target="E5eT6vwn9FKi5rd7ZhD9-2">
          <mxGeometry width="50" height="50" relative="1" as="geometry">
            <mxPoint x="630" y="600" as="sourcePoint" />
            <mxPoint x="343" y="495" as="targetPoint" />
            <Array as="points">
              <mxPoint x="610" y="538" />
            </Array>
          </mxGeometry>
        </mxCell>
        <mxCell id="E5eT6vwn9FKi5rd7ZhD9-27" value="Skip" style="edgeLabel;html=1;align=center;verticalAlign=middle;resizable=0;points=[];" vertex="1" connectable="0" parent="E5eT6vwn9FKi5rd7ZhD9-26">
          <mxGeometry x="-0.2052" y="2" relative="1" as="geometry">
            <mxPoint as="offset" />
          </mxGeometry>
        </mxCell>
        <mxCell id="E5eT6vwn9FKi5rd7ZhD9-29" value="" style="endArrow=classic;html=1;rounded=0;exitX=0.506;exitY=1.044;exitDx=0;exitDy=0;exitPerimeter=0;entryX=0.487;entryY=0.078;entryDx=0;entryDy=0;entryPerimeter=0;" edge="1" parent="1" source="E5eT6vwn9FKi5rd7ZhD9-22" target="E5eT6vwn9FKi5rd7ZhD9-33">
          <mxGeometry width="50" height="50" relative="1" as="geometry">
            <mxPoint x="640" y="1000" as="sourcePoint" />
            <mxPoint x="610" y="960" as="targetPoint" />
          </mxGeometry>
        </mxCell>
        <mxCell id="E5eT6vwn9FKi5rd7ZhD9-32" value="Like" style="edgeLabel;html=1;align=center;verticalAlign=middle;resizable=0;points=[];" vertex="1" connectable="0" parent="E5eT6vwn9FKi5rd7ZhD9-29">
          <mxGeometry x="-0.0737" y="1" relative="1" as="geometry">
            <mxPoint as="offset" />
          </mxGeometry>
        </mxCell>
        <mxCell id="E5eT6vwn9FKi5rd7ZhD9-33" value="Αποστολή Αιτήματος" style="ellipse;shape=umlControl;whiteSpace=wrap;html=1;" vertex="1" parent="1">
          <mxGeometry x="575" y="960" width="70" height="80" as="geometry" />
        </mxCell>
        <mxCell id="E5eT6vwn9FKi5rd7ZhD9-34" value="Landlord" style="shape=umlActor;verticalLabelPosition=bottom;verticalAlign=top;html=1;outlineConnect=0;" vertex="1" parent="1">
          <mxGeometry x="760" y="960" width="30" height="60" as="geometry" />
        </mxCell>
        <mxCell id="E5eT6vwn9FKi5rd7ZhD9-35" value="" style="endArrow=classic;html=1;rounded=0;exitX=0.929;exitY=0.5;exitDx=0;exitDy=0;exitPerimeter=0;entryX=0.393;entryY=0.8;entryDx=0;entryDy=0;entryPerimeter=0;" edge="1" parent="1" source="E5eT6vwn9FKi5rd7ZhD9-33" target="E5eT6vwn9FKi5rd7ZhD9-34">
          <mxGeometry width="50" height="50" relative="1" as="geometry">
            <mxPoint x="680" y="1040" as="sourcePoint" />
            <mxPoint x="730" y="990" as="targetPoint" />
          </mxGeometry>
        </mxCell>
        <mxCell id="E5eT6vwn9FKi5rd7ZhD9-36" value="" style="endArrow=classic;html=1;rounded=0;exitX=0.03;exitY=0.517;exitDx=0;exitDy=0;exitPerimeter=0;entryX=0.976;entryY=0.608;entryDx=0;entryDy=0;entryPerimeter=0;" edge="1" parent="1" source="E5eT6vwn9FKi5rd7ZhD9-33" target="E5eT6vwn9FKi5rd7ZhD9-37">
          <mxGeometry width="50" height="50" relative="1" as="geometry">
            <mxPoint x="400" y="940" as="sourcePoint" />
            <mxPoint x="440" y="1000" as="targetPoint" />
          </mxGeometry>
        </mxCell>
        <mxCell id="E5eT6vwn9FKi5rd7ZhD9-37" value="Καταγραφή" style="ellipse;shape=umlControl;whiteSpace=wrap;html=1;" vertex="1" parent="1">
          <mxGeometry x="355" y="950" width="70" height="80" as="geometry" />
        </mxCell>
        <mxCell id="E5eT6vwn9FKi5rd7ZhD9-38" value="Λίστα Αιτημάτων Χρήστη" style="ellipse;shape=umlEntity;whiteSpace=wrap;html=1;" vertex="1" parent="1">
          <mxGeometry x="180" y="950" width="80" height="80" as="geometry" />
        </mxCell>
        <mxCell id="E5eT6vwn9FKi5rd7ZhD9-39" value="" style="endArrow=classic;html=1;rounded=0;exitX=0.024;exitY=0.619;exitDx=0;exitDy=0;exitPerimeter=0;entryX=0.975;entryY=0.614;entryDx=0;entryDy=0;entryPerimeter=0;" edge="1" parent="1" source="E5eT6vwn9FKi5rd7ZhD9-37" target="E5eT6vwn9FKi5rd7ZhD9-38">
          <mxGeometry width="50" height="50" relative="1" as="geometry">
            <mxPoint x="210" y="930" as="sourcePoint" />
            <mxPoint x="260" y="880" as="targetPoint" />
          </mxGeometry>
        </mxCell>
        <mxCell id="E5eT6vwn9FKi5rd7ZhD9-40" value="Filters" style="ellipse;shape=umlEntity;whiteSpace=wrap;html=1;" vertex="1" parent="1">
          <mxGeometry x="640" y="250" width="80" height="80" as="geometry" />
        </mxCell>
        <mxCell id="E5eT6vwn9FKi5rd7ZhD9-41" value="" style="endArrow=classic;html=1;rounded=0;exitX=0.97;exitY=0.533;exitDx=0;exitDy=0;exitPerimeter=0;entryX=0;entryY=0.5;entryDx=0;entryDy=0;" edge="1" parent="1" source="sBH0ZGKMRaF1Ydb4D2Og-7" target="E5eT6vwn9FKi5rd7ZhD9-40">
          <mxGeometry width="50" height="50" relative="1" as="geometry">
            <mxPoint x="500" y="310" as="sourcePoint" />
            <mxPoint x="550" y="260" as="targetPoint" />
          </mxGeometry>
        </mxCell>
        <mxCell id="E5eT6vwn9FKi5rd7ZhD9-42" value="Appartments" style="ellipse;shape=umlEntity;whiteSpace=wrap;html=1;" vertex="1" parent="1">
          <mxGeometry x="670" y="450" width="80" height="80" as="geometry" />
        </mxCell>
        <mxCell id="E5eT6vwn9FKi5rd7ZhD9-43" value="" style="endArrow=classic;html=1;rounded=0;exitX=1.011;exitY=0.521;exitDx=0;exitDy=0;exitPerimeter=0;entryX=0;entryY=0;entryDx=0;entryDy=0;" edge="1" parent="1" source="E5eT6vwn9FKi5rd7ZhD9-3" target="E5eT6vwn9FKi5rd7ZhD9-42">
          <mxGeometry width="50" height="50" relative="1" as="geometry">
            <mxPoint x="650" y="420" as="sourcePoint" />
            <mxPoint x="700" y="370" as="targetPoint" />
          </mxGeometry>
        </mxCell>
        <mxCell id="E5eT6vwn9FKi5rd7ZhD9-44" value="" style="endArrow=classic;html=1;rounded=0;entryX=0;entryY=0.5;entryDx=0;entryDy=0;exitX=0.986;exitY=0.459;exitDx=0;exitDy=0;exitPerimeter=0;" edge="1" parent="1" source="E5eT6vwn9FKi5rd7ZhD9-2" target="E5eT6vwn9FKi5rd7ZhD9-42">
          <mxGeometry width="50" height="50" relative="1" as="geometry">
            <mxPoint x="583.65" y="506.65" as="sourcePoint" />
            <mxPoint x="409.9999999999999" y="503.3599999999998" as="targetPoint" />
          </mxGeometry>
        </mxCell>
        <mxCell id="E5eT6vwn9FKi5rd7ZhD9-45" value="" style="endArrow=classic;html=1;rounded=0;exitX=0.989;exitY=0.549;exitDx=0;exitDy=0;exitPerimeter=0;entryX=0.5;entryY=1;entryDx=0;entryDy=0;" edge="1" parent="1" source="E5eT6vwn9FKi5rd7ZhD9-12" target="E5eT6vwn9FKi5rd7ZhD9-42">
          <mxGeometry width="50" height="50" relative="1" as="geometry">
            <mxPoint x="700" y="670" as="sourcePoint" />
            <mxPoint x="750" y="620" as="targetPoint" />
            <Array as="points">
              <mxPoint x="710" y="683" />
            </Array>
          </mxGeometry>
        </mxCell>
      </root>
    </mxGraphModel>
  </diagram>
</mxfile>
